<?xml version="1.0" encoding="UTF-8" standalone="no"?>
<svg
   id="visual"
   viewBox="0 0 960 540"
   width="960"
   height="540"
   version="1.1"
   sodipodi:docname="b2.svg"
   inkscape:version="1.3.2 (091e20e, 2023-11-25, custom)"
   xmlns:inkscape="http://www.inkscape.org/namespaces/inkscape"
   xmlns:sodipodi="http://sodipodi.sourceforge.net/DTD/sodipodi-0.dtd"
   xmlns="http://www.w3.org/2000/svg"
   xmlns:svg="http://www.w3.org/2000/svg">
  <defs
     id="defs183" />
  <sodipodi:namedview
     id="namedview183"
     pagecolor="#ffffff"
     bordercolor="#000000"
     borderopacity="0.25"
     inkscape:showpageshadow="2"
     inkscape:pageopacity="0.0"
     inkscape:pagecheckerboard="0"
     inkscape:deskcolor="#d1d1d1"
     inkscape:zoom="1.353125"
     inkscape:cx="480"
     inkscape:cy="270.11547"
     inkscape:window-width="1920"
     inkscape:window-height="1009"
     inkscape:window-x="1912"
     inkscape:window-y="-8"
     inkscape:window-maximized="1"
     inkscape:current-layer="visual" />
  <g
     id="g183"
     style="opacity:0.1031746">
    <g
       transform="translate(74 327)"
       id="g1">
      <path
         d="M0 -21.3L18.4 -10.6L18.4 10.6L0 21.3L-18.4 10.6L-18.4 -10.6Z"
         fill="#297EA6"
         id="path1" />
    </g>
    <g
       transform="translate(215 111)"
       id="g2">
      <path
         d="M0 -12L10.4 -6L10.4 6L0 12L-10.4 6L-10.4 -6Z"
         fill="#297EA6"
         id="path2" />
    </g>
    <g
       transform="translate(639 108)"
       id="g3">
      <path
         d="M0 -18L15.6 -9L15.6 9L0 18L-15.6 9L-15.6 -9Z"
         fill="#297EA6"
         id="path3" />
    </g>
    <g
       transform="translate(166 247)"
       id="g4">
      <path
         d="M0 -15L13 -7.5L13 7.5L0 15L-13 7.5L-13 -7.5Z"
         fill="#297EA6"
         id="path4" />
    </g>
    <g
       transform="translate(407 370)"
       id="g5">
      <path
         d="M0 -17L14.7 -8.5L14.7 8.5L0 17L-14.7 8.5L-14.7 -8.5Z"
         fill="#297EA6"
         id="path5" />
    </g>
    <g
       transform="translate(862 124)"
       id="g6">
      <path
         d="M0 -7L6.1 -3.5L6.1 3.5L0 7L-6.1 3.5L-6.1 -3.5Z"
         fill="#297EA6"
         id="path6" />
    </g>
    <g
       transform="translate(934 486)"
       id="g7">
      <path
         d="M0 -17L14.7 -8.5L14.7 8.5L0 17L-14.7 8.5L-14.7 -8.5Z"
         fill="#297EA6"
         id="path7" />
    </g>
    <g
       transform="translate(778 459)"
       id="g8">
      <path
         d="M0 -16L13.9 -8L13.9 8L0 16L-13.9 8L-13.9 -8Z"
         fill="#297EA6"
         id="path8" />
    </g>
    <g
       transform="translate(393 27)"
       id="g9">
      <path
         d="M0 -15L13 -7.5L13 7.5L0 15L-13 7.5L-13 -7.5Z"
         fill="#297EA6"
         id="path9" />
    </g>
    <g
       transform="translate(707 346)"
       id="g10">
      <path
         d="M0 -12L10.4 -6L10.4 6L0 12L-10.4 6L-10.4 -6Z"
         fill="#297EA6"
         id="path10" />
    </g>
    <g
       transform="translate(472 23)"
       id="g11">
      <path
         d="M0 -15L13 -7.5L13 7.5L0 15L-13 7.5L-13 -7.5Z"
         fill="#297EA6"
         id="path11" />
    </g>
    <g
       transform="translate(934 39)"
       id="g12">
      <path
         d="M0 -15L13 -7.5L13 7.5L0 15L-13 7.5L-13 -7.5Z"
         fill="#297EA6"
         id="path12" />
    </g>
    <g
       transform="translate(62 429)"
       id="g13">
      <path
         d="M0 -20L17.3 -10L17.3 10L0 20L-17.3 10L-17.3 -10Z"
         fill="#297EA6"
         id="path13" />
    </g>
    <g
       transform="translate(647 468)"
       id="g14">
      <path
         d="M0 -2L1.7 -1L1.7 1L0 2L-1.7 1L-1.7 -1Z"
         fill="#297EA6"
         id="path14" />
    </g>
    <g
       transform="translate(295 31)"
       id="g15">
      <path
         d="M0 -20L17.3 -10L17.3 10L0 20L-17.3 10L-17.3 -10Z"
         fill="#297EA6"
         id="path15" />
    </g>
    <g
       transform="translate(305 479)"
       id="g16">
      <path
         d="M0 -11L9.5 -5.5L9.5 5.5L0 11L-9.5 5.5L-9.5 -5.5Z"
         fill="#297EA6"
         id="path16" />
    </g>
    <g
       transform="translate(447 300)"
       id="g17">
      <path
         d="M0 -4L3.5 -2L3.5 2L0 4L-3.5 2L-3.5 -2Z"
         fill="#297EA6"
         id="path17" />
    </g>
    <g
       transform="translate(797 264)"
       id="g18">
      <path
         d="M0 -10L8.7 -5L8.7 5L0 10L-8.7 5L-8.7 -5Z"
         fill="#297EA6"
         id="path18" />
    </g>
    <g
       transform="translate(203 453)"
       id="g19">
      <path
         d="M0 -18L15.6 -9L15.6 9L0 18L-15.6 9L-15.6 -9Z"
         fill="#297EA6"
         id="path19" />
    </g>
    <g
       transform="translate(607 151)"
       id="g20">
      <path
         d="M0 -18L15.6 -9L15.6 9L0 18L-15.6 9L-15.6 -9Z"
         fill="#297EA6"
         id="path20" />
    </g>
    <g
       transform="translate(663 28)"
       id="g21">
      <path
         d="M0 -3L2.6 -1.5L2.6 1.5L0 3L-2.6 1.5L-2.6 -1.5Z"
         fill="#297EA6"
         id="path21" />
    </g>
    <g
       transform="translate(170 123)"
       id="g22">
      <path
         d="M0 -20L17.3 -10L17.3 10L0 20L-17.3 10L-17.3 -10Z"
         fill="#297EA6"
         id="path22" />
    </g>
    <g
       transform="translate(312 300)"
       id="g23">
      <path
         d="M0 -19L16.5 -9.5L16.5 9.5L0 19L-16.5 9.5L-16.5 -9.5Z"
         fill="#297EA6"
         id="path23" />
    </g>
    <g
       transform="translate(165 409)"
       id="g24">
      <path
         d="M0 -6L5.2 -3L5.2 3L0 6L-5.2 3L-5.2 -3Z"
         fill="#297EA6"
         id="path24" />
    </g>
    <g
       transform="translate(862 316)"
       id="g25">
      <path
         d="M0 -4L3.5 -2L3.5 2L0 4L-3.5 2L-3.5 -2Z"
         fill="#297EA6"
         id="path25" />
    </g>
    <g
       transform="translate(44 229)"
       id="g26">
      <path
         d="M0 -4L3.5 -2L3.5 2L0 4L-3.5 2L-3.5 -2Z"
         fill="#297EA6"
         id="path26" />
    </g>
    <g
       transform="translate(291 105)"
       id="g27">
      <path
         d="M0 -9L7.8 -4.5L7.8 4.5L0 9L-7.8 4.5L-7.8 -4.5Z"
         fill="#297EA6"
         id="path27" />
    </g>
    <g
       transform="translate(904 83)"
       id="g28">
      <path
         d="M0 -15L13 -7.5L13 7.5L0 15L-13 7.5L-13 -7.5Z"
         fill="#297EA6"
         id="path28" />
    </g>
    <g
       transform="translate(830 390)"
       id="g29">
      <path
         d="M0 -20L17.3 -10L17.3 10L0 20L-17.3 10L-17.3 -10Z"
         fill="#297EA6"
         id="path29" />
    </g>
    <g
       transform="translate(649 277)"
       id="g30">
      <path
         d="M0 -11L9.5 -5.5L9.5 5.5L0 11L-9.5 5.5L-9.5 -5.5Z"
         fill="#297EA6"
         id="path30" />
    </g>
    <g
       transform="translate(550 238)"
       id="g31">
      <path
         d="M0 -20L17.3 -10L17.3 10L0 20L-17.3 10L-17.3 -10Z"
         fill="#297EA6"
         id="path31" />
    </g>
    <g
       transform="translate(584 334)"
       id="g32">
      <path
         d="M0 -20L17.3 -10L17.3 10L0 20L-17.3 10L-17.3 -10Z"
         fill="#297EA6"
         id="path32" />
    </g>
    <g
       transform="translate(262 186)"
       id="g33">
      <path
         d="M0 -6L5.2 -3L5.2 3L0 6L-5.2 3L-5.2 -3Z"
         fill="#297EA6"
         id="path33" />
    </g>
    <g
       transform="translate(121 220)"
       id="g34">
      <path
         d="M0 -12L10.4 -6L10.4 6L0 12L-10.4 6L-10.4 -6Z"
         fill="#297EA6"
         id="path34" />
    </g>
    <g
       transform="translate(511 143)"
       id="g35">
      <path
         d="M0 -8L6.9 -4L6.9 4L0 8L-6.9 4L-6.9 -4Z"
         fill="#297EA6"
         id="path35" />
    </g>
    <g
       transform="translate(722 187)"
       id="g36">
      <path
         d="M0 -9L7.8 -4.5L7.8 4.5L0 9L-7.8 4.5L-7.8 -4.5Z"
         fill="#297EA6"
         id="path36" />
    </g>
    <g
       transform="translate(400 79)"
       id="g37">
      <path
         d="M0 -9L7.8 -4.5L7.8 4.5L0 9L-7.8 4.5L-7.8 -4.5Z"
         fill="#297EA6"
         id="path37" />
    </g>
    <g
       transform="translate(468 361)"
       id="g38">
      <path
         d="M0 -13L11.3 -6.5L11.3 6.5L0 13L-11.3 6.5L-11.3 -6.5Z"
         fill="#297EA6"
         id="path38" />
    </g>
    <g
       transform="translate(860 64)"
       id="g39">
      <path
         d="M0 -2L1.7 -1L1.7 1L0 2L-1.7 1L-1.7 -1Z"
         fill="#297EA6"
         id="path39" />
    </g>
    <g
       transform="translate(587 62)"
       id="g40">
      <path
         d="M0 -11L9.5 -5.5L9.5 5.5L0 11L-9.5 5.5L-9.5 -5.5Z"
         fill="#297EA6"
         id="path40" />
    </g>
    <g
       transform="translate(417 499)"
       id="g41">
      <path
         d="M0 -5L4.3 -2.5L4.3 2.5L0 5L-4.3 2.5L-4.3 -2.5Z"
         fill="#297EA6"
         id="path41" />
    </g>
    <g
       transform="translate(87 286)"
       id="g42">
      <path
         d="M0 -10L8.7 -5L8.7 5L0 10L-8.7 5L-8.7 -5Z"
         fill="#297EA6"
         id="path42" />
    </g>
    <g
       transform="translate(49 101)"
       id="g43">
      <path
         d="M0 -20L17.3 -10L17.3 10L0 20L-17.3 10L-17.3 -10Z"
         fill="#297EA6"
         id="path43" />
    </g>
    <g
       transform="translate(794 71)"
       id="g44">
      <path
         d="M0 -16L13.9 -8L13.9 8L0 16L-13.9 8L-13.9 -8Z"
         fill="#297EA6"
         id="path44" />
    </g>
    <g
       transform="translate(370 417)"
       id="g45">
      <path
         d="M0 -11L9.5 -5.5L9.5 5.5L0 11L-9.5 5.5L-9.5 -5.5Z"
         fill="#297EA6"
         id="path45" />
    </g>
    <g
       transform="translate(729 434)"
       id="g46">
      <path
         d="M0 -11L9.5 -5.5L9.5 5.5L0 11L-9.5 5.5L-9.5 -5.5Z"
         fill="#297EA6"
         id="path46" />
    </g>
    <g
       transform="translate(513 379)"
       id="g47">
      <path
         d="M0 -14L12.1 -7L12.1 7L0 14L-12.1 7L-12.1 -7Z"
         fill="#297EA6"
         id="path47" />
    </g>
    <g
       transform="translate(534 89)"
       id="g48">
      <path
         d="M0 -9L7.8 -4.5L7.8 4.5L0 9L-7.8 4.5L-7.8 -4.5Z"
         fill="#297EA6"
         id="path48" />
    </g>
    <g
       transform="translate(117 486)"
       id="g49">
      <path
         d="M0 -20L17.3 -10L17.3 10L0 20L-17.3 10L-17.3 -10Z"
         fill="#297EA6"
         id="path49" />
    </g>
    <g
       transform="translate(804 492)"
       id="g50">
      <path
         d="M0 -6L5.2 -3L5.2 3L0 6L-5.2 3L-5.2 -3Z"
         fill="#297EA6"
         id="path50" />
    </g>
    <g
       transform="translate(520 298)"
       id="g51">
      <path
         d="M0 -16L13.9 -8L13.9 8L0 16L-13.9 8L-13.9 -8Z"
         fill="#297EA6"
         id="path51" />
    </g>
    <g
       transform="translate(763 395)"
       id="g52">
      <path
         d="M0 -2L1.7 -1L1.7 1L0 2L-1.7 1L-1.7 -1Z"
         fill="#297EA6"
         id="path52" />
    </g>
    <g
       transform="translate(141 57)"
       id="g53">
      <path
         d="M0 -5L4.3 -2.5L4.3 2.5L0 5L-4.3 2.5L-4.3 -2.5Z"
         fill="#297EA6"
         id="path53" />
    </g>
    <g
       transform="translate(817 217)"
       id="g54">
      <path
         d="M0 -7L6.1 -3.5L6.1 3.5L0 7L-6.1 3.5L-6.1 -3.5Z"
         fill="#297EA6"
         id="path54" />
    </g>
    <g
       transform="translate(328 397)"
       id="g55">
      <path
         d="M0 -19L16.5 -9.5L16.5 9.5L0 19L-16.5 9.5L-16.5 -9.5Z"
         fill="#297EA6"
         id="path55" />
    </g>
    <g
       transform="translate(601 494)"
       id="g56">
      <path
         d="M0 -7L6.1 -3.5L6.1 3.5L0 7L-6.1 3.5L-6.1 -3.5Z"
         fill="#297EA6"
         id="path56" />
    </g>
    <g
       transform="translate(237 22)"
       id="g57">
      <path
         d="M0 -7L6.1 -3.5L6.1 3.5L0 7L-6.1 3.5L-6.1 -3.5Z"
         fill="#297EA6"
         id="path57" />
    </g>
    <g
       transform="translate(158 323)"
       id="g58">
      <path
         d="M0 -14L12.1 -7L12.1 7L0 14L-12.1 7L-12.1 -7Z"
         fill="#297EA6"
         id="path58" />
    </g>
    <g
       transform="translate(824 168)"
       id="g59">
      <path
         d="M0 -14L12.1 -7L12.1 7L0 14L-12.1 7L-12.1 -7Z"
         fill="#297EA6"
         id="path59" />
    </g>
    <g
       transform="translate(868 202)"
       id="g60">
      <path
         d="M0 -15L13 -7.5L13 7.5L0 15L-13 7.5L-13 -7.5Z"
         fill="#297EA6"
         id="path60" />
    </g>
    <g
       transform="translate(44 43)"
       id="g61">
      <path
         d="M0 -18L15.6 -9L15.6 9L0 18L-15.6 9L-15.6 -9Z"
         fill="#297EA6"
         id="path61" />
    </g>
    <g
       transform="translate(75 148)"
       id="g62">
      <path
         d="M0 -15L13 -7.5L13 7.5L0 15L-13 7.5L-13 -7.5Z"
         fill="#297EA6"
         id="path62" />
    </g>
    <g
       transform="translate(801 115)"
       id="g63">
      <path
         d="M0 -13L11.3 -6.5L11.3 6.5L0 13L-11.3 6.5L-11.3 -6.5Z"
         fill="#297EA6"
         id="path63" />
    </g>
    <g
       transform="translate(930 282)"
       id="g64">
      <path
         d="M0 -10L8.7 -5L8.7 5L0 10L-8.7 5L-8.7 -5Z"
         fill="#297EA6"
         id="path64" />
    </g>
    <g
       transform="translate(759 497)"
       id="g65">
      <path
         d="M0 -17L14.7 -8.5L14.7 8.5L0 17L-14.7 8.5L-14.7 -8.5Z"
         fill="#297EA6"
         id="path65" />
    </g>
    <g
       transform="translate(904 450)"
       id="g66">
      <path
         d="M0 -12L10.4 -6L10.4 6L0 12L-10.4 6L-10.4 -6Z"
         fill="#297EA6"
         id="path66" />
    </g>
    <g
       transform="translate(641 424)"
       id="g67">
      <path
         d="M0 -19L16.5 -9.5L16.5 9.5L0 19L-16.5 9.5L-16.5 -9.5Z"
         fill="#297EA6"
         id="path67" />
    </g>
    <g
       transform="translate(708 518)"
       id="g68">
      <path
         d="M0 -7L6.1 -3.5L6.1 3.5L0 7L-6.1 3.5L-6.1 -3.5Z"
         fill="#297EA6"
         id="path68" />
    </g>
    <g
       transform="translate(195 56)"
       id="g69">
      <path
         d="M0 -9L7.8 -4.5L7.8 4.5L0 9L-7.8 4.5L-7.8 -4.5Z"
         fill="#297EA6"
         id="path69" />
    </g>
    <g
       transform="translate(24 353)"
       id="g70">
      <path
         d="M0 -5L4.3 -2.5L4.3 2.5L0 5L-4.3 2.5L-4.3 -2.5Z"
         fill="#297EA6"
         id="path70" />
    </g>
    <g
       transform="translate(852 470)"
       id="g71">
      <path
         d="M0 -10L8.7 -5L8.7 5L0 10L-8.7 5L-8.7 -5Z"
         fill="#297EA6"
         id="path71" />
    </g>
    <g
       transform="translate(899 164)"
       id="g72">
      <path
         d="M0 -3L2.6 -1.5L2.6 1.5L0 3L-2.6 1.5L-2.6 -1.5Z"
         fill="#297EA6"
         id="path72" />
    </g>
    <g
       transform="translate(650 204)"
       id="g73">
      <path
         d="M0 -20L17.3 -10L17.3 10L0 20L-17.3 10L-17.3 -10Z"
         fill="#297EA6"
         id="path73" />
    </g>
    <g
       transform="translate(342 246)"
       id="g74">
      <path
         d="M0 -3L2.6 -1.5L2.6 1.5L0 3L-2.6 1.5L-2.6 -1.5Z"
         fill="#297EA6"
         id="path74" />
    </g>
    <g
       transform="translate(844 261)"
       id="g75">
      <path
         d="M0 -9L7.8 -4.5L7.8 4.5L0 9L-7.8 4.5L-7.8 -4.5Z"
         fill="#297EA6"
         id="path75" />
    </g>
    <g
       transform="translate(805 327)"
       id="g76">
      <path
         d="M0 -9L7.8 -4.5L7.8 4.5L0 9L-7.8 4.5L-7.8 -4.5Z"
         fill="#297EA6"
         id="path76" />
    </g>
    <g
       transform="translate(697 228)"
       id="g77">
      <path
         d="M0 -17L14.7 -8.5L14.7 8.5L0 17L-14.7 8.5L-14.7 -8.5Z"
         fill="#297EA6"
         id="path77" />
    </g>
    <g
       transform="translate(696 118)"
       id="g78">
      <path
         d="M0 -4L3.5 -2L3.5 2L0 4L-3.5 2L-3.5 -2Z"
         fill="#297EA6"
         id="path78" />
    </g>
    <g
       transform="translate(538 40)"
       id="g79">
      <path
         d="M0 -10L8.7 -5L8.7 5L0 10L-8.7 5L-8.7 -5Z"
         fill="#297EA6"
         id="path79" />
    </g>
    <g
       transform="translate(747 151)"
       id="g80">
      <path
         d="M0 -16L13.9 -8L13.9 8L0 16L-13.9 8L-13.9 -8Z"
         fill="#297EA6"
         id="path80" />
    </g>
    <g
       transform="translate(260 482)"
       id="g81">
      <path
         d="M0 -8L6.9 -4L6.9 4L0 8L-6.9 4L-6.9 -4Z"
         fill="#297EA6"
         id="path81" />
    </g>
    <g
       transform="translate(236 300)"
       id="g82">
      <path
         d="M0 -4L3.5 -2L3.5 2L0 4L-3.5 2L-3.5 -2Z"
         fill="#297EA6"
         id="path82" />
    </g>
    <g
       transform="translate(281 373)"
       id="g83">
      <path
         d="M0 -4L3.5 -2L3.5 2L0 4L-3.5 2L-3.5 -2Z"
         fill="#297EA6"
         id="path83" />
    </g>
    <g
       transform="translate(484 475)"
       id="g84">
      <path
         d="M0 -20L17.3 -10L17.3 10L0 20L-17.3 10L-17.3 -10Z"
         fill="#297EA6"
         id="path84" />
    </g>
    <g
       transform="translate(409 441)"
       id="g85">
      <path
         d="M0 -19L16.5 -9.5L16.5 9.5L0 19L-16.5 9.5L-16.5 -9.5Z"
         fill="#297EA6"
         id="path85" />
    </g>
    <g
       transform="translate(411 121)"
       id="g86">
      <path
         d="M0 -13L11.3 -6.5L11.3 6.5L0 13L-11.3 6.5L-11.3 -6.5Z"
         fill="#297EA6"
         id="path86" />
    </g>
    <g
       transform="translate(449 184)"
       id="g87">
      <path
         d="M0 -2L1.7 -1L1.7 1L0 2L-1.7 1L-1.7 -1Z"
         fill="#297EA6"
         id="path87" />
    </g>
    <g
       transform="translate(737 48)"
       id="g88">
      <path
         d="M0 -4L3.5 -2L3.5 2L0 4L-3.5 2L-3.5 -2Z"
         fill="#297EA6"
         id="path88" />
    </g>
    <g
       transform="translate(606 372)"
       id="g89">
      <path
         d="M0 -11L9.5 -5.5L9.5 5.5L0 11L-9.5 5.5L-9.5 -5.5Z"
         fill="#297EA6"
         id="path89" />
    </g>
    <g
       transform="translate(227 378)"
       id="g90">
      <path
         d="M0 -13L11.3 -6.5L11.3 6.5L0 13L-11.3 6.5L-11.3 -6.5Z"
         fill="#297EA6"
         id="path90" />
    </g>
    <g
       transform="translate(539 466)"
       id="g91">
      <path
         d="M0 -19L16.5 -9.5L16.5 9.5L0 19L-16.5 9.5L-16.5 -9.5Z"
         fill="#297EA6"
         id="path91" />
    </g>
    <g
       transform="translate(68 478)"
       id="g92">
      <path
         d="M0 -12L10.4 -6L10.4 6L0 12L-10.4 6L-10.4 -6Z"
         fill="#297EA6"
         id="path92" />
    </g>
    <g
       transform="translate(237 225)"
       id="g93">
      <path
         d="M0 -10L8.7 -5L8.7 5L0 10L-8.7 5L-8.7 -5Z"
         fill="#297EA6"
         id="path93" />
    </g>
    <g
       transform="translate(273 145)"
       id="g94">
      <path
         d="M0 -11L9.5 -5.5L9.5 5.5L0 11L-9.5 5.5L-9.5 -5.5Z"
         fill="#297EA6"
         id="path94" />
    </g>
    <g
       transform="translate(870 361)"
       id="g95">
      <path
         d="M0 -8L6.9 -4L6.9 4L0 8L-6.9 4L-6.9 -4Z"
         fill="#297EA6"
         id="path95" />
    </g>
    <g
       transform="translate(385 203)"
       id="g96">
      <path
         d="M0 -2L1.7 -1L1.7 1L0 2L-1.7 1L-1.7 -1Z"
         fill="#297EA6"
         id="path96" />
    </g>
    <g
       transform="translate(856 425)"
       id="g97">
      <path
         d="M0 -9L7.8 -4.5L7.8 4.5L0 9L-7.8 4.5L-7.8 -4.5Z"
         fill="#297EA6"
         id="path97" />
    </g>
    <g
       transform="translate(366 463)"
       id="g98">
      <path
         d="M0 -12L10.4 -6L10.4 6L0 12L-10.4 6L-10.4 -6Z"
         fill="#297EA6"
         id="path98" />
    </g>
    <g
       transform="translate(376 153)"
       id="g99">
      <path
         d="M0 -9L7.8 -4.5L7.8 4.5L0 9L-7.8 4.5L-7.8 -4.5Z"
         fill="#297EA6"
         id="path99" />
    </g>
    <g
       transform="translate(918 370)"
       id="g100">
      <path
         d="M0 -18L15.6 -9L15.6 9L0 18L-15.6 9L-15.6 -9Z"
         fill="#297EA6"
         id="path100" />
    </g>
    <g
       transform="translate(201 169)"
       id="g101">
      <path
         d="M0 -5L4.3 -2.5L4.3 2.5L0 5L-4.3 2.5L-4.3 -2.5Z"
         fill="#297EA6"
         id="path101" />
    </g>
    <g
       transform="translate(320 192)"
       id="g102">
      <path
         d="M0 -14L12.1 -7L12.1 7L0 14L-12.1 7L-12.1 -7Z"
         fill="#297EA6"
         id="path102" />
    </g>
    <g
       transform="translate(755 89)"
       id="g103">
      <path
         d="M0 -12L10.4 -6L10.4 6L0 12L-10.4 6L-10.4 -6Z"
         fill="#297EA6"
         id="path103" />
    </g>
    <g
       transform="translate(448 97)"
       id="g104">
      <path
         d="M0 -4L3.5 -2L3.5 2L0 4L-3.5 2L-3.5 -2Z"
         fill="#297EA6"
         id="path104" />
    </g>
    <g
       transform="translate(339 517)"
       id="g105">
      <path
         d="M0 -3L2.6 -1.5L2.6 1.5L0 3L-2.6 1.5L-2.6 -1.5Z"
         fill="#297EA6"
         id="path105" />
    </g>
    <g
       transform="translate(604 288)"
       id="g106">
      <path
         d="M0 -2L1.7 -1L1.7 1L0 2L-1.7 1L-1.7 -1Z"
         fill="#297EA6"
         id="path106" />
    </g>
    <g
       transform="translate(908 217)"
       id="g107">
      <path
         d="M0 -4L3.5 -2L3.5 2L0 4L-3.5 2L-3.5 -2Z"
         fill="#297EA6"
         id="path107" />
    </g>
    <g
       transform="translate(448 233)"
       id="g108">
      <path
         d="M0 -2L1.7 -1L1.7 1L0 2L-1.7 1L-1.7 -1Z"
         fill="#297EA6"
         id="path108" />
    </g>
    <g
       transform="translate(101 397)"
       id="g109">
      <path
         d="M0 -16L13.9 -8L13.9 8L0 16L-13.9 8L-13.9 -8Z"
         fill="#297EA6"
         id="path109" />
    </g>
    <g
       transform="translate(747 321)"
       id="g110">
      <path
         d="M0 -19L16.5 -9.5L16.5 9.5L0 19L-16.5 9.5L-16.5 -9.5Z"
         fill="#297EA6"
         id="path110" />
    </g>
    <g
       transform="translate(395 269)"
       id="g111">
      <path
         d="M0 -18L15.6 -9L15.6 9L0 18L-15.6 9L-15.6 -9Z"
         fill="#297EA6"
         id="path111" />
    </g>
    <g
       transform="translate(127 162)"
       id="g112">
      <path
         d="M0 -8L6.9 -4L6.9 4L0 8L-6.9 4L-6.9 -4Z"
         fill="#297EA6"
         id="path112" />
    </g>
    <g
       transform="translate(757 235)"
       id="g113">
      <path
         d="M0 -7L6.1 -3.5L6.1 3.5L0 7L-6.1 3.5L-6.1 -3.5Z"
         fill="#297EA6"
         id="path113" />
    </g>
    <g
       transform="translate(277 429)"
       id="g114">
      <path
         d="M0 -6L5.2 -3L5.2 3L0 6L-5.2 3L-5.2 -3Z"
         fill="#297EA6"
         id="path114" />
    </g>
    <g
       transform="translate(557 166)"
       id="g115">
      <path
         d="M0 -6L5.2 -3L5.2 3L0 6L-5.2 3L-5.2 -3Z"
         fill="#297EA6"
         id="path115" />
    </g>
    <g
       transform="translate(705 276)"
       id="g116">
      <path
         d="M0 -14L12.1 -7L12.1 7L0 14L-12.1 7L-12.1 -7Z"
         fill="#297EA6"
         id="path116" />
    </g>
    <g
       transform="translate(95 75)"
       id="g117">
      <path
         d="M0 -12L10.4 -6L10.4 6L0 12L-10.4 6L-10.4 -6Z"
         fill="#297EA6"
         id="path117" />
    </g>
    <g
       transform="translate(456 425)"
       id="g118">
      <path
         d="M0 -15L13 -7.5L13 7.5L0 15L-13 7.5L-13 -7.5Z"
         fill="#297EA6"
         id="path118" />
    </g>
    <g
       transform="translate(690 75)"
       id="g119">
      <path
         d="M0 -4L3.5 -2L3.5 2L0 4L-3.5 2L-3.5 -2Z"
         fill="#297EA6"
         id="path119" />
    </g>
    <g
       transform="translate(25 510)"
       id="g120">
      <path
         d="M0 -2L1.7 -1L1.7 1L0 2L-1.7 1L-1.7 -1Z"
         fill="#297EA6"
         id="path120" />
    </g>
    <g
       transform="translate(295 228)"
       id="g121">
      <path
         d="M0 -16L13.9 -8L13.9 8L0 16L-13.9 8L-13.9 -8Z"
         fill="#297EA6"
         id="path121" />
    </g>
    <g
       transform="translate(356 58)"
       id="g122">
      <path
         d="M0 -11L9.5 -5.5L9.5 5.5L0 11L-9.5 5.5L-9.5 -5.5Z"
         fill="#297EA6"
         id="path122" />
    </g>
    <g
       transform="translate(355 314)"
       id="g123">
      <path
         d="M0 -14L12.1 -7L12.1 7L0 14L-12.1 7L-12.1 -7Z"
         fill="#297EA6"
         id="path123" />
    </g>
    <g
       transform="translate(905 324)"
       id="g124">
      <path
         d="M0 -14L12.1 -7L12.1 7L0 14L-12.1 7L-12.1 -7Z"
         fill="#297EA6"
         id="path124" />
    </g>
    <g
       transform="translate(125 118)"
       id="g125">
      <path
         d="M0 -19L16.5 -9.5L16.5 9.5L0 19L-16.5 9.5L-16.5 -9.5Z"
         fill="#297EA6"
         id="path125" />
    </g>
    <g
       transform="translate(603 226)"
       id="g126">
      <path
         d="M0 -4L3.5 -2L3.5 2L0 4L-3.5 2L-3.5 -2Z"
         fill="#297EA6"
         id="path126" />
    </g>
    <g
       transform="translate(64 189)"
       id="g127">
      <path
         d="M0 -16L13.9 -8L13.9 8L0 16L-13.9 8L-13.9 -8Z"
         fill="#297EA6"
         id="path127" />
    </g>
    <g
       transform="translate(631 326)"
       id="g128">
      <path
         d="M0 -8L6.9 -4L6.9 4L0 8L-6.9 4L-6.9 -4Z"
         fill="#297EA6"
         id="path128" />
    </g>
    <g
       transform="translate(637 519)"
       id="g129">
      <path
         d="M0 -17L14.7 -8.5L14.7 8.5L0 17L-14.7 8.5L-14.7 -8.5Z"
         fill="#297EA6"
         id="path129" />
    </g>
    <g
       transform="translate(823 28)"
       id="g130">
      <path
         d="M0 -9L7.8 -4.5L7.8 4.5L0 9L-7.8 4.5L-7.8 -4.5Z"
         fill="#297EA6"
         id="path130" />
    </g>
    <g
       transform="translate(25 169)"
       id="g131">
      <path
         d="M0 -15L13 -7.5L13 7.5L0 15L-13 7.5L-13 -7.5Z"
         fill="#297EA6"
         id="path131" />
    </g>
    <g
       transform="translate(323 441)"
       id="g132">
      <path
         d="M0 -2L1.7 -1L1.7 1L0 2L-1.7 1L-1.7 -1Z"
         fill="#297EA6"
         id="path132" />
    </g>
    <g
       transform="translate(599 417)"
       id="g133">
      <path
         d="M0 -9L7.8 -4.5L7.8 4.5L0 9L-7.8 4.5L-7.8 -4.5Z"
         fill="#297EA6"
         id="path133" />
    </g>
    <g
       transform="translate(666 153)"
       id="g134">
      <path
         d="M0 -15L13 -7.5L13 7.5L0 15L-13 7.5L-13 -7.5Z"
         fill="#297EA6"
         id="path134" />
    </g>
    <g
       transform="translate(166 502)"
       id="g135">
      <path
         d="M0 -11L9.5 -5.5L9.5 5.5L0 11L-9.5 5.5L-9.5 -5.5Z"
         fill="#297EA6"
         id="path135" />
    </g>
    <g
       transform="translate(690 411)"
       id="g136">
      <path
         d="M0 -18L15.6 -9L15.6 9L0 18L-15.6 9L-15.6 -9Z"
         fill="#297EA6"
         id="path136" />
    </g>
    <g
       transform="translate(274 320)"
       id="g137">
      <path
         d="M0 -17L14.7 -8.5L14.7 8.5L0 17L-14.7 8.5L-14.7 -8.5Z"
         fill="#297EA6"
         id="path137" />
    </g>
    <g
       transform="translate(410 324)"
       id="g138">
      <path
         d="M0 -10L8.7 -5L8.7 5L0 10L-8.7 5L-8.7 -5Z"
         fill="#297EA6"
         id="path138" />
    </g>
    <g
       transform="translate(191 292)"
       id="g139">
      <path
         d="M0 -8L6.9 -4L6.9 4L0 8L-6.9 4L-6.9 -4Z"
         fill="#297EA6"
         id="path139" />
    </g>
    <g
       transform="translate(344 111)"
       id="g140">
      <path
         d="M0 -12L10.4 -6L10.4 6L0 12L-10.4 6L-10.4 -6Z"
         fill="#297EA6"
         id="path140" />
    </g>
    <g
       transform="translate(495 72)"
       id="g141">
      <path
         d="M0 -17L14.7 -8.5L14.7 8.5L0 17L-14.7 8.5L-14.7 -8.5Z"
         fill="#297EA6"
         id="path141" />
    </g>
    <g
       transform="translate(223 507)"
       id="g142">
      <path
         d="M0 -7L6.1 -3.5L6.1 3.5L0 7L-6.1 3.5L-6.1 -3.5Z"
         fill="#297EA6"
         id="path142" />
    </g>
    <g
       transform="translate(857 513)"
       id="g143">
      <path
         d="M0 -9L7.8 -4.5L7.8 4.5L0 9L-7.8 4.5L-7.8 -4.5Z"
         fill="#297EA6"
         id="path143" />
    </g>
    <g
       transform="translate(509 207)"
       id="g144">
      <path
         d="M0 -9L7.8 -4.5L7.8 4.5L0 9L-7.8 4.5L-7.8 -4.5Z"
         fill="#297EA6"
         id="path144" />
    </g>
    <g
       transform="translate(693 458)"
       id="g145">
      <path
         d="M0 -15L13 -7.5L13 7.5L0 15L-13 7.5L-13 -7.5Z"
         fill="#297EA6"
         id="path145" />
    </g>
    <g
       transform="translate(123 347)"
       id="g146">
      <path
         d="M0 -19L16.5 -9.5L16.5 9.5L0 19L-16.5 9.5L-16.5 -9.5Z"
         fill="#297EA6"
         id="path146" />
    </g>
    <g
       transform="translate(267 269)"
       id="g147">
      <path
         d="M0 -18L15.6 -9L15.6 9L0 18L-15.6 9L-15.6 -9Z"
         fill="#297EA6"
         id="path147" />
    </g>
    <g
       transform="translate(934 414)"
       id="g148">
      <path
         d="M0 -11L9.5 -5.5L9.5 5.5L0 11L-9.5 5.5L-9.5 -5.5Z"
         fill="#297EA6"
         id="path148" />
    </g>
    <g
       transform="translate(143 451)"
       id="g149">
      <path
         d="M0 -7L6.1 -3.5L6.1 3.5L0 7L-6.1 3.5L-6.1 -3.5Z"
         fill="#297EA6"
         id="path149" />
    </g>
    <g
       transform="translate(777 191)"
       id="g150">
      <path
         d="M0 -5L4.3 -2.5L4.3 2.5L0 5L-4.3 2.5L-4.3 -2.5Z"
         fill="#297EA6"
         id="path150" />
    </g>
    <g
       transform="translate(879 23)"
       id="g151">
      <path
         d="M0 -9L7.8 -4.5L7.8 4.5L0 9L-7.8 4.5L-7.8 -4.5Z"
         fill="#297EA6"
         id="path151" />
    </g>
    <g
       transform="translate(158 194)"
       id="g152">
      <path
         d="M0 -12L10.4 -6L10.4 6L0 12L-10.4 6L-10.4 -6Z"
         fill="#297EA6"
         id="path152" />
    </g>
    <g
       transform="translate(32 291)"
       id="g153">
      <path
         d="M0 -6L5.2 -3L5.2 3L0 6L-5.2 3L-5.2 -3Z"
         fill="#297EA6"
         id="path153" />
    </g>
    <g
       transform="translate(480 267)"
       id="g154">
      <path
         d="M0 -19L16.5 -9.5L16.5 9.5L0 19L-16.5 9.5L-16.5 -9.5Z"
         fill="#297EA6"
         id="path154" />
    </g>
    <g
       transform="translate(512 432)"
       id="g155">
      <path
         d="M0 -6L5.2 -3L5.2 3L0 6L-5.2 3L-5.2 -3Z"
         fill="#297EA6"
         id="path155" />
    </g>
    <g
       transform="translate(250 67)"
       id="g156">
      <path
         d="M0 -10L8.7 -5L8.7 5L0 10L-8.7 5L-8.7 -5Z"
         fill="#297EA6"
         id="path156" />
    </g>
    <g
       transform="translate(658 383)"
       id="g157">
      <path
         d="M0 -11L9.5 -5.5L9.5 5.5L0 11L-9.5 5.5L-9.5 -5.5Z"
         fill="#297EA6"
         id="path157" />
    </g>
    <g
       transform="translate(575 104)"
       id="g158">
      <path
         d="M0 -12L10.4 -6L10.4 6L0 12L-10.4 6L-10.4 -6Z"
         fill="#297EA6"
         id="path158" />
    </g>
    <g
       transform="translate(925 126)"
       id="g159">
      <path
         d="M0 -3L2.6 -1.5L2.6 1.5L0 3L-2.6 1.5L-2.6 -1.5Z"
         fill="#297EA6"
         id="path159" />
    </g>
    <g
       transform="translate(129 269)"
       id="g160">
      <path
         d="M0 -16L13.9 -8L13.9 8L0 16L-13.9 8L-13.9 -8Z"
         fill="#297EA6"
         id="path160" />
    </g>
    <g
       transform="translate(26 456)"
       id="g161">
      <path
         d="M0 -18L15.6 -9L15.6 9L0 18L-15.6 9L-15.6 -9Z"
         fill="#297EA6"
         id="path161" />
    </g>
    <g
       transform="translate(83 25)"
       id="g162">
      <path
         d="M0 -11L9.5 -5.5L9.5 5.5L0 11L-9.5 5.5L-9.5 -5.5Z"
         fill="#297EA6"
         id="path162" />
    </g>
    <g
       transform="translate(460 142)"
       id="g163">
      <path
         d="M0 -17L14.7 -8.5L14.7 8.5L0 17L-14.7 8.5L-14.7 -8.5Z"
         fill="#297EA6"
         id="path163" />
    </g>
    <g
       transform="translate(179 368)"
       id="g164">
      <path
         d="M0 -4L3.5 -2L3.5 2L0 4L-3.5 2L-3.5 -2Z"
         fill="#297EA6"
         id="path164" />
    </g>
    <g
       transform="translate(556 384)"
       id="g165">
      <path
         d="M0 -7L6.1 -3.5L6.1 3.5L0 7L-6.1 3.5L-6.1 -3.5Z"
         fill="#297EA6"
         id="path165" />
    </g>
    <g
       transform="translate(620 31)"
       id="g166">
      <path
         d="M0 -12L10.4 -6L10.4 6L0 12L-10.4 6L-10.4 -6Z"
         fill="#297EA6"
         id="path166" />
    </g>
    <g
       transform="translate(457 518)"
       id="g167">
      <path
         d="M0 -15L13 -7.5L13 7.5L0 15L-13 7.5L-13 -7.5Z"
         fill="#297EA6"
         id="path167" />
    </g>
    <g
       transform="translate(25 402)"
       id="g168">
      <path
         d="M0 -10L8.7 -5L8.7 5L0 10L-8.7 5L-8.7 -5Z"
         fill="#297EA6"
         id="path168" />
    </g>
    <g
       transform="translate(891 257)"
       id="g169">
      <path
         d="M0 -12L10.4 -6L10.4 6L0 12L-10.4 6L-10.4 -6Z"
         fill="#297EA6"
         id="path169" />
    </g>
    <g
       transform="translate(532 511)"
       id="g170">
      <path
         d="M0 -3L2.6 -1.5L2.6 1.5L0 3L-2.6 1.5L-2.6 -1.5Z"
         fill="#297EA6"
         id="path170" />
    </g>
    <g
       transform="translate(322 343)"
       id="g171">
      <path
         d="M0 -11L9.5 -5.5L9.5 5.5L0 11L-9.5 5.5L-9.5 -5.5Z"
         fill="#297EA6"
         id="path171" />
    </g>
    <g
       transform="translate(364 364)"
       id="g172">
      <path
         d="M0 -9L7.8 -4.5L7.8 4.5L0 9L-7.8 4.5L-7.8 -4.5Z"
         fill="#297EA6"
         id="path172" />
    </g>
    <g
       transform="translate(436 53)"
       id="g173">
      <path
         d="M0 -6L5.2 -3L5.2 3L0 6L-5.2 3L-5.2 -3Z"
         fill="#297EA6"
         id="path173" />
    </g>
    <g
       transform="translate(777 25)"
       id="g174">
      <path
         d="M0 -11L9.5 -5.5L9.5 5.5L0 11L-9.5 5.5L-9.5 -5.5Z"
         fill="#297EA6"
         id="path174" />
    </g>
    <g
       transform="translate(66 371)"
       id="g175">
      <path
         d="M0 -17L14.7 -8.5L14.7 8.5L0 17L-14.7 8.5L-14.7 -8.5Z"
         fill="#297EA6"
         id="path175" />
    </g>
    <g
       transform="translate(211 337)"
       id="g176">
      <path
         d="M0 -9L7.8 -4.5L7.8 4.5L0 9L-7.8 4.5L-7.8 -4.5Z"
         fill="#297EA6"
         id="path176" />
    </g>
    <g
       transform="translate(235 422)"
       id="g177">
      <path
         d="M0 -11L9.5 -5.5L9.5 5.5L0 11L-9.5 5.5L-9.5 -5.5Z"
         fill="#297EA6"
         id="path177" />
    </g>
    <g
       transform="translate(504 337)"
       id="g178">
      <path
         d="M0 -10L8.7 -5L8.7 5L0 10L-8.7 5L-8.7 -5Z"
         fill="#297EA6"
         id="path178" />
    </g>
    <g
       transform="translate(676 314)"
       id="g179">
      <path
         d="M0 -10L8.7 -5L8.7 5L0 10L-8.7 5L-8.7 -5Z"
         fill="#297EA6"
         id="path179" />
    </g>
    <g
       transform="translate(814 435)"
       id="g180">
      <path
         d="M0 -10L8.7 -5L8.7 5L0 10L-8.7 5L-8.7 -5Z"
         fill="#297EA6"
         id="path180" />
    </g>
    <g
       transform="translate(902 515)"
       id="g181">
      <path
         d="M0 -3L2.6 -1.5L2.6 1.5L0 3L-2.6 1.5L-2.6 -1.5Z"
         fill="#297EA6"
         id="path181" />
    </g>
    <g
       transform="translate(560 280)"
       id="g182">
      <path
         d="M0 -6L5.2 -3L5.2 3L0 6L-5.2 3L-5.2 -3Z"
         fill="#297EA6"
         id="path182" />
    </g>
  </g>
</svg>
