<?xml version="1.0" encoding="UTF-8" standalone="no"?>
<svg
   id="visual"
   viewBox="0 0 960 540"
   width="960"
   height="540"
   version="1.1"
   sodipodi:docname="bg.svg"
   inkscape:version="1.3.2 (091e20e, 2023-11-25, custom)"
   xmlns:inkscape="http://www.inkscape.org/namespaces/inkscape"
   xmlns:sodipodi="http://sodipodi.sourceforge.net/DTD/sodipodi-0.dtd"
   xmlns="http://www.w3.org/2000/svg"
   xmlns:svg="http://www.w3.org/2000/svg">
  <defs
     id="defs144" />
  <sodipodi:namedview
     id="namedview144"
     pagecolor="#ffffff"
     bordercolor="#000000"
     borderopacity="0.25"
     inkscape:showpageshadow="2"
     inkscape:pageopacity="0.0"
     inkscape:pagecheckerboard="0"
     inkscape:deskcolor="#d1d1d1"
     inkscape:zoom="0.33828125"
     inkscape:cx="205.45035"
     inkscape:cy="781.89376"
     inkscape:window-width="1920"
     inkscape:window-height="1009"
     inkscape:window-x="1912"
     inkscape:window-y="-8"
     inkscape:window-maximized="1"
     inkscape:current-layer="visual" />
  <g
     id="g144"
     style="opacity:0.07936508">
    <g
       transform="translate(197 492)"
       id="g1">
      <path
         d="M0 -23.7L20.5 -11.8L20.5 11.8L0 23.7L-20.5 11.8L-20.5 -11.8Z"
         fill="#297EA6"
         id="path1" />
    </g>
    <g
       transform="translate(477 38)"
       id="g2">
      <path
         d="M0 -11L9.5 -5.5L9.5 5.5L0 11L-9.5 5.5L-9.5 -5.5Z"
         fill="#297EA6"
         id="path2" />
    </g>
    <g
       transform="translate(728 344)"
       id="g3">
      <path
         d="M0 -2L1.7 -1L1.7 1L0 2L-1.7 1L-1.7 -1Z"
         fill="#297EA6"
         id="path3" />
    </g>
    <g
       transform="translate(324 170)"
       id="g4">
      <path
         d="M0 -8L6.9 -4L6.9 4L0 8L-6.9 4L-6.9 -4Z"
         fill="#297EA6"
         id="path4" />
    </g>
    <g
       transform="translate(374 40)"
       id="g5">
      <path
         d="M0 -18L15.6 -9L15.6 9L0 18L-15.6 9L-15.6 -9Z"
         fill="#297EA6"
         id="path5" />
    </g>
    <g
       transform="translate(872 178)"
       id="g6">
      <path
         d="M0 -20L17.3 -10L17.3 10L0 20L-17.3 10L-17.3 -10Z"
         fill="#297EA6"
         id="path6" />
    </g>
    <g
       transform="translate(379 393)"
       id="g7">
      <path
         d="M0 -20L17.3 -10L17.3 10L0 20L-17.3 10L-17.3 -10Z"
         fill="#297EA6"
         id="path7" />
    </g>
    <g
       transform="translate(385 330)"
       id="g8">
      <path
         d="M0 -5L4.3 -2.5L4.3 2.5L0 5L-4.3 2.5L-4.3 -2.5Z"
         fill="#297EA6"
         id="path8" />
    </g>
    <g
       transform="translate(853 78)"
       id="g9">
      <path
         d="M0 -2L1.7 -1L1.7 1L0 2L-1.7 1L-1.7 -1Z"
         fill="#297EA6"
         id="path9" />
    </g>
    <g
       transform="translate(331 452)"
       id="g10">
      <path
         d="M0 -6L5.2 -3L5.2 3L0 6L-5.2 3L-5.2 -3Z"
         fill="#297EA6"
         id="path10" />
    </g>
    <g
       transform="translate(567 390)"
       id="g11">
      <path
         d="M0 -8L6.9 -4L6.9 4L0 8L-6.9 4L-6.9 -4Z"
         fill="#297EA6"
         id="path11" />
    </g>
    <g
       transform="translate(31 46)"
       id="g12">
      <path
         d="M0 -10L8.7 -5L8.7 5L0 10L-8.7 5L-8.7 -5Z"
         fill="#297EA6"
         id="path12" />
    </g>
    <g
       transform="translate(51 410)"
       id="g13">
      <path
         d="M0 -9L7.8 -4.5L7.8 4.5L0 9L-7.8 4.5L-7.8 -4.5Z"
         fill="#297EA6"
         id="path13" />
    </g>
    <g
       transform="translate(833 222)"
       id="g14">
      <path
         d="M0 -16L13.9 -8L13.9 8L0 16L-13.9 8L-13.9 -8Z"
         fill="#297EA6"
         id="path14" />
    </g>
    <g
       transform="translate(422 466)"
       id="g15">
      <path
         d="M0 -10L8.7 -5L8.7 5L0 10L-8.7 5L-8.7 -5Z"
         fill="#297EA6"
         id="path15" />
    </g>
    <g
       transform="translate(73 483)"
       id="g16">
      <path
         d="M0 -20L17.3 -10L17.3 10L0 20L-17.3 10L-17.3 -10Z"
         fill="#297EA6"
         id="path16" />
    </g>
    <g
       transform="translate(567 169)"
       id="g17">
      <path
         d="M0 -16L13.9 -8L13.9 8L0 16L-13.9 8L-13.9 -8Z"
         fill="#297EA6"
         id="path17" />
    </g>
    <g
       transform="translate(816 426)"
       id="g18">
      <path
         d="M0 -15L13 -7.5L13 7.5L0 15L-13 7.5L-13 -7.5Z"
         fill="#297EA6"
         id="path18" />
    </g>
    <g
       transform="translate(37 316)"
       id="g19">
      <path
         d="M0 -5L4.3 -2.5L4.3 2.5L0 5L-4.3 2.5L-4.3 -2.5Z"
         fill="#297EA6"
         id="path19" />
    </g>
    <g
       transform="translate(786 497)"
       id="g20">
      <path
         d="M0 -17L14.7 -8.5L14.7 8.5L0 17L-14.7 8.5L-14.7 -8.5Z"
         fill="#297EA6"
         id="path20" />
    </g>
    <g
       transform="translate(404 229)"
       id="g21">
      <path
         d="M0 -15L13 -7.5L13 7.5L0 15L-13 7.5L-13 -7.5Z"
         fill="#297EA6"
         id="path21" />
    </g>
    <g
       transform="translate(848 508)"
       id="g22">
      <path
         d="M0 -5L4.3 -2.5L4.3 2.5L0 5L-4.3 2.5L-4.3 -2.5Z"
         fill="#297EA6"
         id="path22" />
    </g>
    <g
       transform="translate(776 364)"
       id="g23">
      <path
         d="M0 -17L14.7 -8.5L14.7 8.5L0 17L-14.7 8.5L-14.7 -8.5Z"
         fill="#297EA6"
         id="path23" />
    </g>
    <g
       transform="translate(402 127)"
       id="g24">
      <path
         d="M0 -4L3.5 -2L3.5 2L0 4L-3.5 2L-3.5 -2Z"
         fill="#297EA6"
         id="path24" />
    </g>
    <g
       transform="translate(788 85)"
       id="g25">
      <path
         d="M0 -11L9.5 -5.5L9.5 5.5L0 11L-9.5 5.5L-9.5 -5.5Z"
         fill="#297EA6"
         id="path25" />
    </g>
    <g
       transform="translate(531 322)"
       id="g26">
      <path
         d="M0 -3L2.6 -1.5L2.6 1.5L0 3L-2.6 1.5L-2.6 -1.5Z"
         fill="#297EA6"
         id="path26" />
    </g>
    <g
       transform="translate(621 211)"
       id="g27">
      <path
         d="M0 -15L13 -7.5L13 7.5L0 15L-13 7.5L-13 -7.5Z"
         fill="#297EA6"
         id="path27" />
    </g>
    <g
       transform="translate(922 478)"
       id="g28">
      <path
         d="M0 -7L6.1 -3.5L6.1 3.5L0 7L-6.1 3.5L-6.1 -3.5Z"
         fill="#297EA6"
         id="path28" />
    </g>
    <g
       transform="translate(235 276)"
       id="g29">
      <path
         d="M0 -3L2.6 -1.5L2.6 1.5L0 3L-2.6 1.5L-2.6 -1.5Z"
         fill="#297EA6"
         id="path29" />
    </g>
    <g
       transform="translate(744 433)"
       id="g30">
      <path
         d="M0 -11L9.5 -5.5L9.5 5.5L0 11L-9.5 5.5L-9.5 -5.5Z"
         fill="#297EA6"
         id="path30" />
    </g>
    <g
       transform="translate(203 180)"
       id="g31">
      <path
         d="M0 -2L1.7 -1L1.7 1L0 2L-1.7 1L-1.7 -1Z"
         fill="#297EA6"
         id="path31" />
    </g>
    <g
       transform="translate(151 241)"
       id="g32">
      <path
         d="M0 -8L6.9 -4L6.9 4L0 8L-6.9 4L-6.9 -4Z"
         fill="#297EA6"
         id="path32" />
    </g>
    <g
       transform="translate(498 378)"
       id="g33">
      <path
         d="M0 -7L6.1 -3.5L6.1 3.5L0 7L-6.1 3.5L-6.1 -3.5Z"
         fill="#297EA6"
         id="path33" />
    </g>
    <g
       transform="translate(638 346)"
       id="g34">
      <path
         d="M0 -3L2.6 -1.5L2.6 1.5L0 3L-2.6 1.5L-2.6 -1.5Z"
         fill="#297EA6"
         id="path34" />
    </g>
    <g
       transform="translate(325 514)"
       id="g35">
      <path
         d="M0 -10L8.7 -5L8.7 5L0 10L-8.7 5L-8.7 -5Z"
         fill="#297EA6"
         id="path35" />
    </g>
    <g
       transform="translate(287 395)"
       id="g36">
      <path
         d="M0 -16L13.9 -8L13.9 8L0 16L-13.9 8L-13.9 -8Z"
         fill="#297EA6"
         id="path36" />
    </g>
    <g
       transform="translate(226 83)"
       id="g37">
      <path
         d="M0 -21L18.2 -10.5L18.2 10.5L0 21L-18.2 10.5L-18.2 -10.5Z"
         fill="#297EA6"
         id="path37" />
    </g>
    <g
       transform="translate(909 321)"
       id="g38">
      <path
         d="M0 -7L6.1 -3.5L6.1 3.5L0 7L-6.1 3.5L-6.1 -3.5Z"
         fill="#297EA6"
         id="path38" />
    </g>
    <g
       transform="translate(94 157)"
       id="g39">
      <path
         d="M0 -4L3.5 -2L3.5 2L0 4L-3.5 2L-3.5 -2Z"
         fill="#297EA6"
         id="path39" />
    </g>
    <g
       transform="translate(232 453)"
       id="g40">
      <path
         d="M0 -6L5.2 -3L5.2 3L0 6L-5.2 3L-5.2 -3Z"
         fill="#297EA6"
         id="path40" />
    </g>
    <g
       transform="translate(704 36)"
       id="g41">
      <path
         d="M0 -5L4.3 -2.5L4.3 2.5L0 5L-4.3 2.5L-4.3 -2.5Z"
         fill="#297EA6"
         id="path41" />
    </g>
    <g
       transform="translate(927 366)"
       id="g42">
      <path
         d="M0 -19L16.5 -9.5L16.5 9.5L0 19L-16.5 9.5L-16.5 -9.5Z"
         fill="#297EA6"
         id="path42" />
    </g>
    <g
       transform="translate(755 187)"
       id="g43">
      <path
         d="M0 -2L1.7 -1L1.7 1L0 2L-1.7 1L-1.7 -1Z"
         fill="#297EA6"
         id="path43" />
    </g>
    <g
       transform="translate(98 221)"
       id="g44">
      <path
         d="M0 -21L18.2 -10.5L18.2 10.5L0 21L-18.2 10.5L-18.2 -10.5Z"
         fill="#297EA6"
         id="path44" />
    </g>
    <g
       transform="translate(504 495)"
       id="g45">
      <path
         d="M0 -6L5.2 -3L5.2 3L0 6L-5.2 3L-5.2 -3Z"
         fill="#297EA6"
         id="path45" />
    </g>
    <g
       transform="translate(559 281)"
       id="g46">
      <path
         d="M0 -16L13.9 -8L13.9 8L0 16L-13.9 8L-13.9 -8Z"
         fill="#297EA6"
         id="path46" />
    </g>
    <g
       transform="translate(930 190)"
       id="g47">
      <path
         d="M0 -14L12.1 -7L12.1 7L0 14L-12.1 7L-12.1 -7Z"
         fill="#297EA6"
         id="path47" />
    </g>
    <g
       transform="translate(718 257)"
       id="g48">
      <path
         d="M0 -4L3.5 -2L3.5 2L0 4L-3.5 2L-3.5 -2Z"
         fill="#297EA6"
         id="path48" />
    </g>
    <g
       transform="translate(188 43)"
       id="g49">
      <path
         d="M0 -10L8.7 -5L8.7 5L0 10L-8.7 5L-8.7 -5Z"
         fill="#297EA6"
         id="path49" />
    </g>
    <g
       transform="translate(265 503)"
       id="g50">
      <path
         d="M0 -12L10.4 -6L10.4 6L0 12L-10.4 6L-10.4 -6Z"
         fill="#297EA6"
         id="path50" />
    </g>
    <g
       transform="translate(453 138)"
       id="g51">
      <path
         d="M0 -12L10.4 -6L10.4 6L0 12L-10.4 6L-10.4 -6Z"
         fill="#297EA6"
         id="path51" />
    </g>
    <g
       transform="translate(759 295)"
       id="g52">
      <path
         d="M0 -10L8.7 -5L8.7 5L0 10L-8.7 5L-8.7 -5Z"
         fill="#297EA6"
         id="path52" />
    </g>
    <g
       transform="translate(285 97)"
       id="g53">
      <path
         d="M0 -7L6.1 -3.5L6.1 3.5L0 7L-6.1 3.5L-6.1 -3.5Z"
         fill="#297EA6"
         id="path53" />
    </g>
    <g
       transform="translate(527 85)"
       id="g54">
      <path
         d="M0 -10L8.7 -5L8.7 5L0 10L-8.7 5L-8.7 -5Z"
         fill="#297EA6"
         id="path54" />
    </g>
    <g
       transform="translate(658 98)"
       id="g55">
      <path
         d="M0 -2L1.7 -1L1.7 1L0 2L-1.7 1L-1.7 -1Z"
         fill="#297EA6"
         id="path55" />
    </g>
    <g
       transform="translate(205 236)"
       id="g56">
      <path
         d="M0 -13L11.3 -6.5L11.3 6.5L0 13L-11.3 6.5L-11.3 -6.5Z"
         fill="#297EA6"
         id="path56" />
    </g>
    <g
       transform="translate(632 494)"
       id="g57">
      <path
         d="M0 -9L7.8 -4.5L7.8 4.5L0 9L-7.8 4.5L-7.8 -4.5Z"
         fill="#297EA6"
         id="path57" />
    </g>
    <g
       transform="translate(152 87)"
       id="g58">
      <path
         d="M0 -8L6.9 -4L6.9 4L0 8L-6.9 4L-6.9 -4Z"
         fill="#297EA6"
         id="path58" />
    </g>
    <g
       transform="translate(841 299)"
       id="g59">
      <path
         d="M0 -4L3.5 -2L3.5 2L0 4L-3.5 2L-3.5 -2Z"
         fill="#297EA6"
         id="path59" />
    </g>
    <g
       transform="translate(624 140)"
       id="g60">
      <path
         d="M0 -6L5.2 -3L5.2 3L0 6L-5.2 3L-5.2 -3Z"
         fill="#297EA6"
         id="path60" />
    </g>
    <g
       transform="translate(81 364)"
       id="g61">
      <path
         d="M0 -19L16.5 -9.5L16.5 9.5L0 19L-16.5 9.5L-16.5 -9.5Z"
         fill="#297EA6"
         id="path61" />
    </g>
    <g
       transform="translate(333 290)"
       id="g62">
      <path
         d="M0 -7L6.1 -3.5L6.1 3.5L0 7L-6.1 3.5L-6.1 -3.5Z"
         fill="#297EA6"
         id="path62" />
    </g>
    <g
       transform="translate(437 70)"
       id="g63">
      <path
         d="M0 -11L9.5 -5.5L9.5 5.5L0 11L-9.5 5.5L-9.5 -5.5Z"
         fill="#297EA6"
         id="path63" />
    </g>
    <g
       transform="translate(286 316)"
       id="g64">
      <path
         d="M0 -18L15.6 -9L15.6 9L0 18L-15.6 9L-15.6 -9Z"
         fill="#297EA6"
         id="path64" />
    </g>
    <g
       transform="translate(384 282)"
       id="g65">
      <path
         d="M0 -14L12.1 -7L12.1 7L0 14L-12.1 7L-12.1 -7Z"
         fill="#297EA6"
         id="path65" />
    </g>
    <g
       transform="translate(712 96)"
       id="g66">
      <path
         d="M0 -7L6.1 -3.5L6.1 3.5L0 7L-6.1 3.5L-6.1 -3.5Z"
         fill="#297EA6"
         id="path66" />
    </g>
    <g
       transform="translate(300 227)"
       id="g67">
      <path
         d="M0 -17L14.7 -8.5L14.7 8.5L0 17L-14.7 8.5L-14.7 -8.5Z"
         fill="#297EA6"
         id="path67" />
    </g>
    <g
       transform="translate(477 185)"
       id="g68">
      <path
         d="M0 -22L19.1 -11L19.1 11L0 22L-19.1 11L-19.1 -11Z"
         fill="#297EA6"
         id="path68" />
    </g>
    <g
       transform="translate(319 358)"
       id="g69">
      <path
         d="M0 -4L3.5 -2L3.5 2L0 4L-3.5 2L-3.5 -2Z"
         fill="#297EA6"
         id="path69" />
    </g>
    <g
       transform="translate(643 429)"
       id="g70">
      <path
         d="M0 -13L11.3 -6.5L11.3 6.5L0 13L-11.3 6.5L-11.3 -6.5Z"
         fill="#297EA6"
         id="path70" />
    </g>
    <g
       transform="translate(44 122)"
       id="g71">
      <path
         d="M0 -16L13.9 -8L13.9 8L0 16L-13.9 8L-13.9 -8Z"
         fill="#297EA6"
         id="path71" />
    </g>
    <g
       transform="translate(668 231)"
       id="g72">
      <path
         d="M0 -4L3.5 -2L3.5 2L0 4L-3.5 2L-3.5 -2Z"
         fill="#297EA6"
         id="path72" />
    </g>
    <g
       transform="translate(698 486)"
       id="g73">
      <path
         d="M0 -18L15.6 -9L15.6 9L0 18L-15.6 9L-15.6 -9Z"
         fill="#297EA6"
         id="path73" />
    </g>
    <g
       transform="translate(457 301)"
       id="g74">
      <path
         d="M0 -13L11.3 -6.5L11.3 6.5L0 13L-11.3 6.5L-11.3 -6.5Z"
         fill="#297EA6"
         id="path74" />
    </g>
    <g
       transform="translate(210 372)"
       id="g75">
      <path
         d="M0 -9L7.8 -4.5L7.8 4.5L0 9L-7.8 4.5L-7.8 -4.5Z"
         fill="#297EA6"
         id="path75" />
    </g>
    <g
       transform="translate(101 273)"
       id="g76">
      <path
         d="M0 -14L12.1 -7L12.1 7L0 14L-12.1 7L-12.1 -7Z"
         fill="#297EA6"
         id="path76" />
    </g>
    <g
       transform="translate(134 473)"
       id="g77">
      <path
         d="M0 -10L8.7 -5L8.7 5L0 10L-8.7 5L-8.7 -5Z"
         fill="#297EA6"
         id="path77" />
    </g>
    <g
       transform="translate(777 231)"
       id="g78">
      <path
         d="M0 -12L10.4 -6L10.4 6L0 12L-10.4 6L-10.4 -6Z"
         fill="#297EA6"
         id="path78" />
    </g>
    <g
       transform="translate(486 254)"
       id="g79">
      <path
         d="M0 -11L9.5 -5.5L9.5 5.5L0 11L-9.5 5.5L-9.5 -5.5Z"
         fill="#297EA6"
         id="path79" />
    </g>
    <g
       transform="translate(886 38)"
       id="g80">
      <path
         d="M0 -5L4.3 -2.5L4.3 2.5L0 5L-4.3 2.5L-4.3 -2.5Z"
         fill="#297EA6"
         id="path80" />
    </g>
    <g
       transform="translate(85 42)"
       id="g81">
      <path
         d="M0 -22L19.1 -11L19.1 11L0 22L-19.1 11L-19.1 -11Z"
         fill="#297EA6"
         id="path81" />
    </g>
    <g
       transform="translate(592 467)"
       id="g82">
      <path
         d="M0 -10L8.7 -5L8.7 5L0 10L-8.7 5L-8.7 -5Z"
         fill="#297EA6"
         id="path82" />
    </g>
    <g
       transform="translate(611 286)"
       id="g83">
      <path
         d="M0 -9L7.8 -4.5L7.8 4.5L0 9L-7.8 4.5L-7.8 -4.5Z"
         fill="#297EA6"
         id="path83" />
    </g>
    <g
       transform="translate(914 138)"
       id="g84">
      <path
         d="M0 -13L11.3 -6.5L11.3 6.5L0 13L-11.3 6.5L-11.3 -6.5Z"
         fill="#297EA6"
         id="path84" />
    </g>
    <g
       transform="translate(827 37)"
       id="g85">
      <path
         d="M0 -19L16.5 -9.5L16.5 9.5L0 19L-16.5 9.5L-16.5 -9.5Z"
         fill="#297EA6"
         id="path85" />
    </g>
    <g
       transform="translate(400 176)"
       id="g86">
      <path
         d="M0 -18L15.6 -9L15.6 9L0 18L-15.6 9L-15.6 -9Z"
         fill="#297EA6"
         id="path86" />
    </g>
    <g
       transform="translate(157 333)"
       id="g87">
      <path
         d="M0 -15L13 -7.5L13 7.5L0 15L-13 7.5L-13 -7.5Z"
         fill="#297EA6"
         id="path87" />
    </g>
    <g
       transform="translate(740 136)"
       id="g88">
      <path
         d="M0 -3L2.6 -1.5L2.6 1.5L0 3L-2.6 1.5L-2.6 -1.5Z"
         fill="#297EA6"
         id="path88" />
    </g>
    <g
       transform="translate(264 162)"
       id="g89">
      <path
         d="M0 -14L12.1 -7L12.1 7L0 14L-12.1 7L-12.1 -7Z"
         fill="#297EA6"
         id="path89" />
    </g>
    <g
       transform="translate(666 281)"
       id="g90">
      <path
         d="M0 -17L14.7 -8.5L14.7 8.5L0 17L-14.7 8.5L-14.7 -8.5Z"
         fill="#297EA6"
         id="path90" />
    </g>
    <g
       transform="translate(537 446)"
       id="g91">
      <path
         d="M0 -13L11.3 -6.5L11.3 6.5L0 13L-11.3 6.5L-11.3 -6.5Z"
         fill="#297EA6"
         id="path91" />
    </g>
    <g
       transform="translate(101 94)"
       id="g92">
      <path
         d="M0 -14L12.1 -7L12.1 7L0 14L-12.1 7L-12.1 -7Z"
         fill="#297EA6"
         id="path92" />
    </g>
    <g
       transform="translate(700 386)"
       id="g93">
      <path
         d="M0 -20L17.3 -10L17.3 10L0 20L-17.3 10L-17.3 -10Z"
         fill="#297EA6"
         id="path93" />
    </g>
    <g
       transform="translate(579 112)"
       id="g94">
      <path
         d="M0 -21L18.2 -10.5L18.2 10.5L0 21L-18.2 10.5L-18.2 -10.5Z"
         fill="#297EA6"
         id="path94" />
    </g>
    <g
       transform="translate(879 261)"
       id="g95">
      <path
         d="M0 -3L2.6 -1.5L2.6 1.5L0 3L-2.6 1.5L-2.6 -1.5Z"
         fill="#297EA6"
         id="path95" />
    </g>
    <g
       transform="translate(927 428)"
       id="g96">
      <path
         d="M0 -12L10.4 -6L10.4 6L0 12L-10.4 6L-10.4 -6Z"
         fill="#297EA6"
         id="path96" />
    </g>
    <g
       transform="translate(31 364)"
       id="g97">
      <path
         d="M0 -9L7.8 -4.5L7.8 4.5L0 9L-7.8 4.5L-7.8 -4.5Z"
         fill="#297EA6"
         id="path97" />
    </g>
    <g
       transform="translate(136 190)"
       id="g98">
      <path
         d="M0 -19L16.5 -9.5L16.5 9.5L0 19L-16.5 9.5L-16.5 -9.5Z"
         fill="#297EA6"
         id="path98" />
    </g>
    <g
       transform="translate(611 55)"
       id="g99">
      <path
         d="M0 -22L19.1 -11L19.1 11L0 22L-19.1 11L-19.1 -11Z"
         fill="#297EA6"
         id="path99" />
    </g>
    <g
       transform="translate(471 442)"
       id="g100">
      <path
         d="M0 -7L6.1 -3.5L6.1 3.5L0 7L-6.1 3.5L-6.1 -3.5Z"
         fill="#297EA6"
         id="path100" />
    </g>
    <g
       transform="translate(848 129)"
       id="g101">
      <path
         d="M0 -10L8.7 -5L8.7 5L0 10L-8.7 5L-8.7 -5Z"
         fill="#297EA6"
         id="path101" />
    </g>
    <g
       transform="translate(879 429)"
       id="g102">
      <path
         d="M0 -11L9.5 -5.5L9.5 5.5L0 11L-9.5 5.5L-9.5 -5.5Z"
         fill="#297EA6"
         id="path102" />
    </g>
    <g
       transform="translate(315 44)"
       id="g103">
      <path
         d="M0 -17L14.7 -8.5L14.7 8.5L0 17L-14.7 8.5L-14.7 -8.5Z"
         fill="#297EA6"
         id="path103" />
    </g>
    <g
       transform="translate(189 298)"
       id="g104">
      <path
         d="M0 -2L1.7 -1L1.7 1L0 2L-1.7 1L-1.7 -1Z"
         fill="#297EA6"
         id="path104" />
    </g>
    <g
       transform="translate(567 511)"
       id="g105">
      <path
         d="M0 -8L6.9 -4L6.9 4L0 8L-6.9 4L-6.9 -4Z"
         fill="#297EA6"
         id="path105" />
    </g>
    <g
       transform="translate(163 135)"
       id="g106">
      <path
         d="M0 -18L15.6 -9L15.6 9L0 18L-15.6 9L-15.6 -9Z"
         fill="#297EA6"
         id="path106" />
    </g>
    <g
       transform="translate(532 33)"
       id="g107">
      <path
         d="M0 -21L18.2 -10.5L18.2 10.5L0 21L-18.2 10.5L-18.2 -10.5Z"
         fill="#297EA6"
         id="path107" />
    </g>
    <g
       transform="translate(335 105)"
       id="g108">
      <path
         d="M0 -14L12.1 -7L12.1 7L0 14L-12.1 7L-12.1 -7Z"
         fill="#297EA6"
         id="path108" />
    </g>
    <g
       transform="translate(246 208)"
       id="g109">
      <path
         d="M0 -10L8.7 -5L8.7 5L0 10L-8.7 5L-8.7 -5Z"
         fill="#297EA6"
         id="path109" />
    </g>
    <g
       transform="translate(137 388)"
       id="g110">
      <path
         d="M0 -19L16.5 -9.5L16.5 9.5L0 19L-16.5 9.5L-16.5 -9.5Z"
         fill="#297EA6"
         id="path110" />
    </g>
    <g
       transform="translate(510 134)"
       id="g111">
      <path
         d="M0 -10L8.7 -5L8.7 5L0 10L-8.7 5L-8.7 -5Z"
         fill="#297EA6"
         id="path111" />
    </g>
    <g
       transform="translate(45 199)"
       id="g112">
      <path
         d="M0 -22L19.1 -11L19.1 11L0 22L-19.1 11L-19.1 -11Z"
         fill="#297EA6"
         id="path112" />
    </g>
    <g
       transform="translate(529 202)"
       id="g113">
      <path
         d="M0 -3L2.6 -1.5L2.6 1.5L0 3L-2.6 1.5L-2.6 -1.5Z"
         fill="#297EA6"
         id="path113" />
    </g>
    <g
       transform="translate(868 351)"
       id="g114">
      <path
         d="M0 -10L8.7 -5L8.7 5L0 10L-8.7 5L-8.7 -5Z"
         fill="#297EA6"
         id="path114" />
    </g>
    <g
       transform="translate(372 484)"
       id="g115">
      <path
         d="M0 -22L19.1 -11L19.1 11L0 22L-19.1 11L-19.1 -11Z"
         fill="#297EA6"
         id="path115" />
    </g>
    <g
       transform="translate(654 31)"
       id="g116">
      <path
         d="M0 -4L3.5 -2L3.5 2L0 4L-3.5 2L-3.5 -2Z"
         fill="#297EA6"
         id="path116" />
    </g>
    <g
       transform="translate(28 465)"
       id="g117">
      <path
         d="M0 -4L3.5 -2L3.5 2L0 4L-3.5 2L-3.5 -2Z"
         fill="#297EA6"
         id="path117" />
    </g>
    <g
       transform="translate(429 419)"
       id="g118">
      <path
         d="M0 -22L19.1 -11L19.1 11L0 22L-19.1 11L-19.1 -11Z"
         fill="#297EA6"
         id="path118" />
    </g>
    <g
       transform="translate(226 133)"
       id="g119">
      <path
         d="M0 -15L13 -7.5L13 7.5L0 15L-13 7.5L-13 -7.5Z"
         fill="#297EA6"
         id="path119" />
    </g>
    <g
       transform="translate(184 430)"
       id="g120">
      <path
         d="M0 -5L4.3 -2.5L4.3 2.5L0 5L-4.3 2.5L-4.3 -2.5Z"
         fill="#297EA6"
         id="path120" />
    </g>
    <g
       transform="translate(137 33)"
       id="g121">
      <path
         d="M0 -22L19.1 -11L19.1 11L0 22L-19.1 11L-19.1 -11Z"
         fill="#297EA6"
         id="path121" />
    </g>
    <g
       transform="translate(245 31)"
       id="g122">
      <path
         d="M0 -9L7.8 -4.5L7.8 4.5L0 9L-7.8 4.5L-7.8 -4.5Z"
         fill="#297EA6"
         id="path122" />
    </g>
    <g
       transform="translate(448 353)"
       id="g123">
      <path
         d="M0 -12L10.4 -6L10.4 6L0 12L-10.4 6L-10.4 -6Z"
         fill="#297EA6"
         id="path123" />
    </g>
    <g
       transform="translate(934 264)"
       id="g124">
      <path
         d="M0 -15L13 -7.5L13 7.5L0 15L-13 7.5L-13 -7.5Z"
         fill="#297EA6"
         id="path124" />
    </g>
    <g
       transform="translate(675 170)"
       id="g125">
      <path
         d="M0 -4L3.5 -2L3.5 2L0 4L-3.5 2L-3.5 -2Z"
         fill="#297EA6"
         id="path125" />
    </g>
    <g
       transform="translate(357 218)"
       id="g126">
      <path
         d="M0 -3L2.6 -1.5L2.6 1.5L0 3L-2.6 1.5L-2.6 -1.5Z"
         fill="#297EA6"
         id="path126" />
    </g>
    <g
       transform="translate(808 171)"
       id="g127">
      <path
         d="M0 -2L1.7 -1L1.7 1L0 2L-1.7 1L-1.7 -1Z"
         fill="#297EA6"
         id="path127" />
    </g>
    <g
       transform="translate(43 266)"
       id="g128">
      <path
         d="M0 -11L9.5 -5.5L9.5 5.5L0 11L-9.5 5.5L-9.5 -5.5Z"
         fill="#297EA6"
         id="path128" />
    </g>
    <g
       transform="translate(918 80)"
       id="g129">
      <path
         d="M0 -4L3.5 -2L3.5 2L0 4L-3.5 2L-3.5 -2Z"
         fill="#297EA6"
         id="path129" />
    </g>
    <g
       transform="translate(280 449)"
       id="g130">
      <path
         d="M0 -16L13.9 -8L13.9 8L0 16L-13.9 8L-13.9 -8Z"
         fill="#297EA6"
         id="path130" />
    </g>
    <g
       transform="translate(741 512)"
       id="g131">
      <path
         d="M0 -16L13.9 -8L13.9 8L0 16L-13.9 8L-13.9 -8Z"
         fill="#297EA6"
         id="path131" />
    </g>
    <g
       transform="translate(234 324)"
       id="g132">
      <path
         d="M0 -2L1.7 -1L1.7 1L0 2L-1.7 1L-1.7 -1Z"
         fill="#297EA6"
         id="path132" />
    </g>
    <g
       transform="translate(765 33)"
       id="g133">
      <path
         d="M0 -8L6.9 -4L6.9 4L0 8L-6.9 4L-6.9 -4Z"
         fill="#297EA6"
         id="path133" />
    </g>
    <g
       transform="translate(578 335)"
       id="g134">
      <path
         d="M0 -18L15.6 -9L15.6 9L0 18L-15.6 9L-15.6 -9Z"
         fill="#297EA6"
         id="path134" />
    </g>
    <g
       transform="translate(696 439)"
       id="g135">
      <path
         d="M0 -3L2.6 -1.5L2.6 1.5L0 3L-2.6 1.5L-2.6 -1.5Z"
         fill="#297EA6"
         id="path135" />
    </g>
    <g
       transform="translate(936 25)"
       id="g136">
      <path
         d="M0 -20L17.3 -10L17.3 10L0 20L-17.3 10L-17.3 -10Z"
         fill="#297EA6"
         id="path136" />
    </g>
    <g
       transform="translate(455 507)"
       id="g137">
      <path
         d="M0 -12L10.4 -6L10.4 6L0 12L-10.4 6L-10.4 -6Z"
         fill="#297EA6"
         id="path137" />
    </g>
    <g
       transform="translate(91 436)"
       id="g138">
      <path
         d="M0 -7L6.1 -3.5L6.1 3.5L0 7L-6.1 3.5L-6.1 -3.5Z"
         fill="#297EA6"
         id="path138" />
    </g>
    <g
       transform="translate(711 206)"
       id="g139">
      <path
         d="M0 -14L12.1 -7L12.1 7L0 14L-12.1 7L-12.1 -7Z"
         fill="#297EA6"
         id="path139" />
    </g>
    <g
       transform="translate(573 231)"
       id="g140">
      <path
         d="M0 -14L12.1 -7L12.1 7L0 14L-12.1 7L-12.1 -7Z"
         fill="#297EA6"
         id="path140" />
    </g>
    <g
       transform="translate(27 515)"
       id="g141">
      <path
         d="M0 -11L9.5 -5.5L9.5 5.5L0 11L-9.5 5.5L-9.5 -5.5Z"
         fill="#297EA6"
         id="path141" />
    </g>
    <g
       transform="translate(110 322)"
       id="g142">
      <path
         d="M0 -9L7.8 -4.5L7.8 4.5L0 9L-7.8 4.5L-7.8 -4.5Z"
         fill="#297EA6"
         id="path142" />
    </g>
    <g
       transform="translate(822 376)"
       id="g143">
      <path
         d="M0 -2L1.7 -1L1.7 1L0 2L-1.7 1L-1.7 -1Z"
         fill="#297EA6"
         id="path143" />
    </g>
  </g>
</svg>
