<?xml version="1.0" encoding="UTF-8" standalone="no"?>
<svg
   id="visual"
   viewBox="0 0 960 540"
   width="960"
   height="540"
   version="1.1"
   sodipodi:docname="bg.svg"
   inkscape:version="1.3.2 (091e20e, 2023-11-25, custom)"
   xmlns:inkscape="http://www.inkscape.org/namespaces/inkscape"
   xmlns:sodipodi="http://sodipodi.sourceforge.net/DTD/sodipodi-0.dtd"
   xmlns="http://www.w3.org/2000/svg"
   xmlns:svg="http://www.w3.org/2000/svg">
  <sodipodi:namedview
     id="namedview11"
     pagecolor="#ffffff"
     bordercolor="#000000"
     borderopacity="0.25"
     inkscape:showpageshadow="2"
     inkscape:pageopacity="0.0"
     inkscape:pagecheckerboard="0"
     inkscape:deskcolor="#d1d1d1"
     inkscape:zoom="0.6765625"
     inkscape:cx="795.93533"
     inkscape:cy="167.75982"
     inkscape:window-width="1920"
     inkscape:window-height="1009"
     inkscape:window-x="1912"
     inkscape:window-y="-8"
     inkscape:window-maximized="1"
     inkscape:current-layer="visual" />
  <rect
     x="0"
     y="0"
     width="960"
     height="540"
     fill="#001220"
     id="rect1"
     style="fill:#001220;fill-opacity:0" />
  <defs
     id="defs2">
    <linearGradient
       id="grad1_0"
       x1="43.8%"
       y1="0%"
       x2="100%"
       y2="100%">
      <stop
         offset="14.444444444444446%"
         stop-color="#3c87fa"
         stop-opacity="1"
         id="stop1" />
      <stop
         offset="85.55555555555554%"
         stop-color="#3c87fa"
         stop-opacity="1"
         id="stop2" />
    </linearGradient>
  </defs>
  <defs
     id="defs4">
    <linearGradient
       id="grad1_1"
       x1="43.8%"
       y1="0%"
       x2="100%"
       y2="100%">
      <stop
         offset="14.444444444444446%"
         stop-color="#3c87fa"
         stop-opacity="1"
         id="stop3" />
      <stop
         offset="85.55555555555554%"
         stop-color="#001220"
         stop-opacity="1"
         id="stop4" />
    </linearGradient>
  </defs>
  <defs
     id="defs6">
    <linearGradient
       id="grad2_0"
       x1="0%"
       y1="0%"
       x2="56.3%"
       y2="100%">
      <stop
         offset="14.444444444444446%"
         stop-color="#3c87fa"
         stop-opacity="1"
         id="stop5" />
      <stop
         offset="85.55555555555554%"
         stop-color="#3c87fa"
         stop-opacity="1"
         id="stop6" />
    </linearGradient>
  </defs>
  <defs
     id="defs8">
    <linearGradient
       id="grad2_1"
       x1="0%"
       y1="0%"
       x2="56.3%"
       y2="100%">
      <stop
         offset="14.444444444444446%"
         stop-color="#001220"
         stop-opacity="1"
         id="stop7" />
      <stop
         offset="85.55555555555554%"
         stop-color="#3c87fa"
         stop-opacity="1"
         id="stop8" />
    </linearGradient>
  </defs>
  <g
     transform="matrix(0.62136116,0,0,0.58486585,960,0)"
     id="g9">
    <path
       d="m 0,324 c -6,-58.5 -12.1,-117 -31.5,-105.2 -19.3,11.7 -52,93.8 -59.8,92.1 -7.8,-1.8 9.3,-87.4 -3.8,-102.6 -13.1,-15.2 -56.3,40.2 -60.6,34 -4.3,-6.2 30.4,-73.9 18.2,-83.6 -12.3,-9.7 -71.5,38.6 -105.1,51.5 -33.6,13 -41.5,-9.4 -28.3,-36.1 13.2,-26.7 47.5,-57.9 51.7,-74 C -215,84 -241,82.8 -258.1,75.8 -275.2,68.7 -283.5,55.7 -293,42.1 -302.5,28.5 -313.2,14.3 -324,0 H 0 Z"
       fill="#004b86"
       id="path8" />
    <path
       d="m 0,162 c -3,-29.3 -6,-58.5 -15.7,-52.6 -9.7,5.9 -26,46.9 -29.9,46 -3.9,-0.8 4.6,-43.7 -2,-51.2 -6.5,-7.6 -28.1,20 -30.3,16.9 -2.1,-3.1 15.3,-36.9 9.1,-41.7 -6.1,-4.9 -35.7,19.2 -52.5,25.7 -16.8,6.5 -20.7,-4.7 -14.1,-18.1 6.6,-13.3 23.7,-28.9 25.8,-36.9 2.1,-8.1 -10.9,-8.7 -19.5,-12.2 -8.5,-3.5 -12.6,-10 -17.4,-16.8 C -151.2,14.3 -156.6,7.1 -162,0 H 0 Z"
       fill="#3c87fa"
       id="path9" />
  </g>
  <g
     transform="matrix(0.84294544,0,0,0.61679925,-1.47806,489.74596)"
     id="g11">
    <path
       d="m 0,-324 c 8.3,49 16.7,98 32.7,96.3 16.1,-1.6 39.9,-53.9 51,-57.3 11.1,-3.3 9.5,42.2 23.5,50.3 14,8.1 43.7,-21.3 58.8,-23.6 15.1,-2.2 15.7,22.8 27.8,34.6 12.2,11.8 36,10.3 31.4,28.6 -4.6,18.2 -37.5,56.1 -29.2,69.1 8.3,13 57.8,1.2 56,10.9 -1.8,9.8 -54.9,41.2 -44.7,54.2 10.1,13.1 83.4,7.7 113.4,14.8 30,7.1 16.6,26.6 3.3,46.1 H 0 Z"
       fill="#004b86"
       id="path10" />
    <path
       d="m 0,-162 c 4.2,24.5 8.3,49 16.4,48.2 8,-0.9 19.9,-27 25.4,-28.7 5.6,-1.7 4.8,21.1 11.8,25.2 7,4 21.8,-10.7 29.4,-11.8 7.5,-1.1 7.8,11.4 13.9,17.2 6.1,5.9 18,5.2 15.7,14.3 -2.3,9.1 -18.7,28.1 -14.6,34.6 4.1,6.5 28.9,0.6 28,5.5 -0.9,4.8 -27.4,20.6 -22.4,27.1 5.1,6.5 41.8,3.8 56.8,7.3 14.9,3.6 8.3,13.3 1.6,23.1 H 0 Z"
       fill="#3c87fa"
       id="path11" />
  </g>
</svg>
